<svg width="75" height="75" viewBox="0 0 75 75" fill="none" xmlns="http://www.w3.org/2000/svg">
<path d="M29.3649 33.7239C33.4538 34.0144 37.5722 32.3153 37.7488 27.8702C37.8296 23.7136 37.7018 16.8084 37.9155 9.75066C37.9158 9.74965 37.9155 9.75066 37.9155 9.75066C33.9518 9.29839 29.129 9.82067 29.0939 17.1305C29.0838 19.1534 29.6068 20.1799 29.3649 33.7239Z" fill="#FFCA5F"/>
<path d="M29.3649 33.724C16.3767 29.5393 11.9627 18.2152 14.0417 11.1629C14.0417 11.1629 11.6615 16.3791 10.9785 21.8455C10.5678 25.129 13.8389 30.8041 18.0844 32.1409C23.6301 33.8875 29.3649 33.724 29.3649 33.724Z" stroke="#FFCA5F" stroke-width="0.318521" stroke-miterlimit="10"/>
<path d="M29.0017 33.6197C18.2675 27.6279 15.0705 18.2809 13.6785 11.0586" stroke="#FFCA5F" stroke-width="0.318521" stroke-miterlimit="10"/>
<path d="M29.0018 33.6198C18.2615 33.3157 8.50915 25.302 13.6786 11.0586" stroke="#FFCA5F" stroke-width="0.318521" stroke-miterlimit="10"/>
<path d="M35.4652 45.9178C35.7271 41.8823 33.9739 37.8021 29.4707 37.5926C25.2605 37.4801 18.2683 37.5517 11.119 37.2851C11.118 37.2848 11.119 37.2851 11.119 37.2851C10.6923 41.1956 11.2593 45.9621 18.6626 46.0544C20.7113 46.0804 21.7468 45.572 35.4652 45.9178Z" fill="#FFCA5F"/>
<path d="M46.4664 36.7823C42.3774 36.4918 38.259 38.191 38.0824 42.6361C38.0017 46.7927 38.1294 53.6979 37.9158 60.7556C37.9158 60.7556 37.9155 60.7566 37.9158 60.7556C41.8795 61.2079 46.7023 60.6856 46.7373 53.3757C46.7474 51.3529 46.2244 50.3263 46.4664 36.7823Z" fill="#FFCA5F"/>
<path d="M46.4661 36.7823C59.4542 40.967 63.8683 52.2911 61.7893 59.3434C61.7893 59.3434 64.1695 54.1271 64.8525 48.6608C65.2632 45.3773 61.9921 39.7022 57.7466 38.3653C52.2012 36.6177 46.4661 36.7823 46.4661 36.7823Z" stroke="#FFCA5F" stroke-width="0.318521" stroke-miterlimit="10"/>
<path d="M46.4663 36.7823C57.2006 42.7742 60.3975 52.1212 61.7895 59.3435" stroke="#FFCA5F" stroke-width="0.318521" stroke-miterlimit="10"/>
<path d="M37.3227 27.7478C37.0608 31.7833 38.814 35.8636 43.3172 36.073C47.5274 36.1855 54.5195 36.1139 61.6689 36.3806C61.6689 36.3806 61.6699 36.3809 61.6689 36.3806C62.0956 32.4701 61.5286 27.7035 54.1253 27.6112C52.0766 27.5853 51.0411 28.0936 37.3227 27.7478Z" fill="#FFCA5F"/>
</svg>
